<svg width="32" height="34" viewBox="0 0 32 34" fill="none" xmlns="http://www.w3.org/2000/svg">
<g clip-path="url(#clip0)">
<path fill-rule="evenodd" clip-rule="evenodd" d="M6.53643 0.00592041C4.75319 0.00592041 3.43368 2.13695 3.49277 4.448C3.54947 6.6683 3.4758 9.5439 2.9456 11.889C2.41351 14.2406 1.51426 15.7308 0.0451355 15.9221V18.0816C1.51426 18.2733 2.41351 19.7628 2.94554 22.1147C3.4758 24.4598 3.54941 27.3354 3.49271 29.5557C3.43362 31.8664 4.75313 33.9978 6.53668 33.9978H24.809C26.5922 33.9978 27.9115 31.8668 27.8524 29.5557C27.7957 27.3354 27.8694 24.4598 28.3996 22.1147C28.9317 19.7628 29.8287 18.2727 31.2979 18.0816V15.9221C29.8288 15.7304 28.9317 14.2409 28.3996 11.889C27.8693 9.54423 27.7957 6.6683 27.8524 4.448C27.9115 2.13729 26.5922 0.00592041 24.809 0.00592041H6.53619H6.53643ZM21.2335 20.9301C21.2335 24.1124 19.495 26.0423 16.6099 26.0423H11.6987C11.5582 26.0423 11.4235 25.9661 11.3241 25.8305C11.2248 25.6948 11.169 25.5109 11.169 25.3191V8.68474C11.169 8.49292 11.2248 8.30897 11.3241 8.17333C11.4235 8.0377 11.5582 7.9615 11.6987 7.9615H16.5819C18.9876 7.9615 20.5664 9.74067 20.5664 12.4723C20.5664 14.3895 19.5043 16.1059 18.1512 16.4066V16.5066C19.9932 16.7825 21.2335 18.5243 21.2335 20.9301ZM16.0744 10.2541H13.2741V15.6546H15.6326C17.4559 15.6546 18.4613 14.6522 18.4613 12.8605C18.4611 11.1813 17.5967 10.2541 16.0744 10.2541ZM13.2741 17.7974V23.7489H16.1774C18.0758 23.7489 19.0813 22.7089 19.0813 20.7544C19.0813 18.7999 18.0476 17.7971 16.0553 17.7971H13.2741V17.7974Z" fill="#7952B3"/>
</g>
<defs>
<clipPath id="clip0">
<rect width="31.2528" height="34" fill="white" transform="translate(0.0451355)"/>
</clipPath>
</defs>
</svg>
