<svg width="32" height="34" viewBox="0 0 32 34" fill="none" xmlns="http://www.w3.org/2000/svg">
<g clip-path="url(#clip0)">
<path d="M2.84414 31.2678L0 6.68265H31.2528L28.4055 31.2639L15.6072 33.9984L2.84414 31.2678Z" fill="#E44D26"/>
<path d="M15.6264 31.9081L25.9679 29.6985L28.4012 8.69296H15.6264V31.9081Z" fill="#F16529"/>
<path d="M15.6264 17.8112H10.4492L10.0916 14.7235H15.6264V11.7082H5.81558L5.90934 12.5172L6.87093 20.8264H15.6264V17.8112ZM15.6264 25.6421L15.6092 25.6457L11.2519 24.7389L10.9733 22.3342H7.0458L7.59401 27.0686L15.6085 28.7832L15.6264 28.7793V25.6421Z" fill="#EBEBEB"/>
<path d="M2.90778 0.0022583H4.89602V1.51615H6.71479V0.0022583H8.7031V4.58673H6.71479V3.0516H4.89602V4.58673H2.90792L2.90778 0.0022583ZM11.3179 1.52261H9.5676V0.0022583H15.0576V1.52261H13.3065V4.58673H11.318V1.52261H11.3179ZM15.9288 0.0022583H18.0022L19.2775 1.61315L20.5516 0.0022583H22.6256V4.58673H20.6452V2.31437L19.2773 3.94441H19.2431L17.8742 2.31437V4.58673H15.9287V0.0022583H15.9288ZM23.615 0.0022583H25.6038V3.07142H28.4001V4.58673H23.615V0.0022583Z" fill="black"/>
<path d="M15.6129 17.8111V20.8263H20.4308L19.9766 24.7369L15.6129 25.6445V28.7815L23.6338 27.0684L23.6924 26.5589L24.612 18.6208L24.7074 17.8111H23.6532H15.6129ZM15.6129 11.7082V14.7235H25.0635L25.1419 14.0457L25.3201 12.5172L25.4138 11.7082H15.6129Z" fill="white"/>
</g>
<defs>
<clipPath id="clip0">
<rect width="31.2528" height="34" fill="white"/>
</clipPath>
</defs>
</svg>
