<svg width="30" height="31" viewBox="0 0 30 31" fill="none" xmlns="http://www.w3.org/2000/svg">
<g clip-path="url(#clip0)">
<path d="M1.42862 1.29532H27.8384V28.9485H1.42862V1.29532Z" fill="#2E1515"/>
<path d="M0.228127 0.00311279V30.2408H29.0389V0.00311279H0.228127ZM1.42858 1.29532H27.8385V28.9486H1.42858V1.29532Z" fill="#FF36C2"/>
<path d="M21.152 12.7055C20.9719 12.615 20.7438 12.5763 20.4557 12.5763C18.9431 12.5763 17.9348 13.8297 17.9348 15.9101C17.9348 18.2878 18.9672 19.244 20.3117 19.244C20.5998 19.244 20.9119 19.2053 21.14 19.1019V12.7055H21.152ZM15.774 16.0135C15.774 13.0027 17.5746 10.6509 20.5277 10.6509C20.7798 10.6509 20.9119 10.6509 21.152 10.6767V7.31701C21.152 7.23948 21.212 7.18779 21.272 7.18779H23.2047C23.3008 7.18779 23.3248 7.22655 23.3248 7.29116V19.1019C23.3248 19.4508 23.3248 19.8901 23.3848 20.3682C23.3848 20.4587 23.3848 20.4716 23.3128 20.5104C22.3044 21.0273 21.248 21.2599 20.2396 21.2599C17.6347 21.2599 15.774 19.5283 15.774 16.0135ZM11.6804 13.9202L15.0417 20.9368C15.1017 21.0402 15.0657 21.1436 14.9697 21.1436H12.8809C12.7488 21.1436 12.6888 21.1048 12.6288 20.9756C11.8605 19.2699 11.0802 17.4996 10.2759 15.6646H10.2519C9.53162 17.3962 8.73933 19.2828 7.97104 20.9885C7.91102 21.0919 7.85099 21.1306 7.75496 21.1306H5.76221C5.64217 21.1306 5.63016 21.0273 5.69019 20.9497L8.97942 14.1398L5.79823 7.3687C5.7262 7.26532 5.79823 7.17487 5.88226 7.17487H7.94703C8.06708 7.17487 8.1271 7.20071 8.16311 7.31701C8.91939 9.03564 9.68768 10.7284 10.408 12.46H10.432C11.1282 10.7543 11.8965 9.03564 12.6288 7.34285C12.6888 7.23948 12.7248 7.17487 12.8449 7.17487H14.7776C14.8736 7.17487 14.9096 7.2524 14.8496 7.3687L11.6804 13.9202Z" fill="#FF36C2"/>
</g>
<defs>
<clipPath id="clip0">
<rect width="28.8108" height="30.2439" fill="white" transform="translate(0.228165)"/>
</clipPath>
</defs>
</svg>
