<svg width="47" height="28" viewBox="0 0 47 28" fill="none" xmlns="http://www.w3.org/2000/svg">
<g clip-path="url(#clip0)">
<path d="M13.306 10.2065C13.306 10.7752 13.3676 11.2364 13.4754 11.5745C13.5986 11.9127 13.7526 12.2816 13.9682 12.6813C14.0452 12.8042 14.076 12.9272 14.076 13.0348C14.076 13.1885 13.9836 13.3422 13.7834 13.4959L12.8132 14.1415C12.6746 14.2338 12.536 14.2799 12.4128 14.2799C12.2588 14.2799 12.1048 14.203 11.9508 14.0647C11.7352 13.8341 11.5504 13.5882 11.3963 13.3422C11.2423 13.0809 11.0883 12.7889 10.9189 12.4353C9.71769 13.8495 8.20844 14.5566 6.39118 14.5566C5.09754 14.5566 4.06571 14.1876 3.31108 13.4498C2.55646 12.712 2.17145 11.7283 2.17145 10.4986C2.17145 9.192 2.63346 8.13139 3.57289 7.33208C4.51232 6.53278 5.75976 6.13313 7.34602 6.13313C7.86963 6.13313 8.40865 6.17924 8.97847 6.2561C9.54829 6.33295 10.1335 6.45592 10.7495 6.59427V5.47217C10.7495 4.30395 10.5031 3.48928 10.0257 3.01277C9.53289 2.53626 8.70126 2.3057 7.51542 2.3057C6.9764 2.3057 6.42199 2.36718 5.85217 2.50552C5.28235 2.64386 4.72793 2.81295 4.18891 3.02814C3.94251 3.13574 3.7577 3.19723 3.6499 3.22797C3.54209 3.25871 3.46509 3.27408 3.40349 3.27408C3.18788 3.27408 3.08008 3.12037 3.08008 2.79758V2.04439C3.08008 1.79845 3.11088 1.61399 3.18788 1.50639C3.26488 1.3988 3.40349 1.2912 3.61909 1.1836C4.15811 0.906916 4.80493 0.676348 5.55956 0.491893C6.31418 0.292068 7.11501 0.19984 7.96204 0.19984C9.79469 0.19984 11.1345 0.614863 11.997 1.44491C12.844 2.27495 13.2752 3.53539 13.2752 5.22623V10.2065H13.306ZM7.05341 12.5429C7.56162 12.5429 8.08524 12.4507 8.63966 12.2662C9.19408 12.0818 9.68689 11.7436 10.1027 11.2825C10.3491 10.9904 10.5339 10.6676 10.6263 10.2987C10.7187 9.92982 10.7803 9.48405 10.7803 8.96143V8.31584C10.3337 8.20824 9.8563 8.11602 9.36348 8.05453C8.87066 7.99305 8.39325 7.9623 7.91583 7.9623C6.884 7.9623 6.12938 8.16213 5.62116 8.57715C5.11294 8.99218 4.86654 9.57628 4.86654 10.3448C4.86654 11.0673 5.05134 11.6053 5.43635 11.9742C5.80597 12.3585 6.34498 12.5429 7.05341 12.5429ZM19.42 14.203C19.1428 14.203 18.958 14.1569 18.8348 14.0493C18.7116 13.9571 18.6038 13.7419 18.5114 13.4498L14.8923 1.56788C14.7999 1.26045 14.7537 1.06063 14.7537 0.95303C14.7537 0.70709 14.8769 0.568749 15.1233 0.568749H16.6325C16.9251 0.568749 17.1253 0.614863 17.2331 0.722462C17.3563 0.814689 17.4487 1.02989 17.5411 1.32194L20.1284 11.4977L22.5309 1.32194C22.6079 1.01451 22.7003 0.814689 22.8235 0.722462C22.9467 0.630234 23.1623 0.568749 23.4395 0.568749H24.6716C24.9642 0.568749 25.1644 0.614863 25.2876 0.722462C25.4108 0.814689 25.5186 1.02989 25.5802 1.32194L28.0135 11.6207L30.6778 1.32194C30.7702 1.01451 30.878 0.814689 30.9858 0.722462C31.109 0.630234 31.3092 0.568749 31.5864 0.568749H33.0186C33.2651 0.568749 33.4037 0.691719 33.4037 0.95303C33.4037 1.02989 33.3883 1.10674 33.3729 1.19897C33.3575 1.2912 33.3267 1.41417 33.2651 1.58325L29.5535 13.4652C29.4611 13.7726 29.3533 13.9724 29.2301 14.0647C29.1069 14.1569 28.9067 14.2184 28.6449 14.2184H27.3205C27.0279 14.2184 26.8276 14.1723 26.7044 14.0647C26.5812 13.9571 26.4734 13.7573 26.4118 13.4498L24.0248 3.53539L21.6531 13.4345C21.5761 13.7419 21.4837 13.9417 21.3605 14.0493C21.2373 14.1569 21.0217 14.203 20.7444 14.203H19.42ZM39.2096 14.618C38.4088 14.618 37.608 14.5258 36.838 14.3414C36.0679 14.1569 35.4673 13.9571 35.0669 13.7265C34.8205 13.5882 34.6511 13.4345 34.5895 13.2961C34.5279 13.1578 34.4971 13.0041 34.4971 12.8657V12.0818C34.4971 11.759 34.6203 11.6053 34.8513 11.6053C34.9437 11.6053 35.0361 11.6207 35.1285 11.6514C35.2209 11.6821 35.3595 11.7436 35.5135 11.8051C36.0371 12.0357 36.607 12.2201 37.2076 12.3431C37.8236 12.4661 38.4242 12.5276 39.0402 12.5276C40.0105 12.5276 40.7651 12.3585 41.2887 12.0203C41.8123 11.6821 42.0895 11.1903 42.0895 10.56C42.0895 10.1296 41.9509 9.77611 41.6737 9.48405C41.3965 9.192 40.8729 8.93069 40.1183 8.68475L37.8852 7.99305C36.761 7.63951 35.9293 7.11689 35.4211 6.42518C34.9129 5.74885 34.6511 4.99566 34.6511 4.19636C34.6511 3.55076 34.7897 2.98203 35.0669 2.49015C35.3441 1.99827 35.7137 1.56788 36.1757 1.22971C36.6378 0.876174 37.1614 0.614863 37.7774 0.430409C38.3934 0.245954 39.0402 0.169098 39.7179 0.169098C40.0567 0.169098 40.4109 0.184469 40.7497 0.230583C41.1039 0.276696 41.4273 0.338181 41.7507 0.399666C42.0587 0.476522 42.3513 0.553378 42.6286 0.645606C42.9058 0.737833 43.1214 0.83006 43.2754 0.922287C43.491 1.04526 43.645 1.16823 43.7374 1.30657C43.8298 1.42954 43.876 1.59862 43.876 1.81382V2.53626C43.876 2.85906 43.7528 3.02814 43.5218 3.02814C43.3986 3.02814 43.1984 2.96666 42.9366 2.84369C42.0587 2.44404 41.0731 2.24421 39.9797 2.24421C39.1018 2.24421 38.4088 2.38255 37.9314 2.67461C37.454 2.96666 37.2076 3.41242 37.2076 4.04264C37.2076 4.47304 37.3616 4.84195 37.6696 5.134C37.9776 5.42605 38.5474 5.71811 39.3637 5.97942L41.5505 6.67112C42.6594 7.02466 43.4602 7.51654 43.9376 8.14676C44.415 8.77698 44.646 9.49942 44.646 10.2987C44.646 10.9597 44.5074 11.5592 44.2456 12.0818C43.9684 12.6044 43.5988 13.0655 43.1214 13.4345C42.644 13.8187 42.0741 14.0954 41.4119 14.2952C40.7189 14.5104 39.9951 14.618 39.2096 14.618Z" fill="#252F3E"/>
<path fill-rule="evenodd" clip-rule="evenodd" d="M42.1203 22.0884C37.0536 25.8236 29.6921 27.8065 23.3625 27.8065C14.4919 27.8065 6.499 24.5325 0.462004 19.0911C-0.0154117 18.6607 0.415802 18.0766 0.985621 18.4147C7.51543 22.196 15.5699 24.4864 23.9016 24.4864C29.5227 24.4864 35.6983 23.3181 41.3811 20.9202C42.2282 20.5359 42.952 21.4736 42.1203 22.0884Z" fill="#FF9900"/>
<path fill-rule="evenodd" clip-rule="evenodd" d="M44.2302 19.6905C43.5834 18.8605 39.9489 19.2909 38.301 19.4907C37.8082 19.5522 37.7312 19.1218 38.1778 18.799C41.0731 16.77 45.8319 17.3541 46.3863 18.0304C46.9407 18.7221 46.2323 23.4718 43.5218 25.7468C43.106 26.1003 42.7056 25.9159 42.8904 25.4547C43.5064 23.933 44.877 20.5052 44.2302 19.6905Z" fill="#FF9900"/>
</g>
<defs>
<clipPath id="clip0">
<rect width="46.8175" height="27.9756" fill="white"/>
</clipPath>
</defs>
</svg>
