<svg width="30" height="30" viewBox="0 0 30 30" fill="none" xmlns="http://www.w3.org/2000/svg">
<g clip-path="url(#clip0)">
<path fill-rule="evenodd" clip-rule="evenodd" d="M4.44433 24.3637V22.1415C4.44433 21.8495 4.59791 21.6149 4.85229 21.6149H4.92268C5.17694 21.6149 5.32984 21.8497 5.32984 22.1415V26.82C5.32984 27.9609 4.8556 28.8687 4.02917 29.447C3.6506 29.7136 3.21847 29.8537 2.77845 29.8524H2.60281C1.64268 29.8524 0.879905 29.2884 0.392527 28.3068C0.167922 27.8569 0.0500822 27.3431 0.0515346 26.82V26.6115C0.0515346 25.4703 0.525999 24.563 1.35174 23.9836C1.73024 23.7165 2.16261 23.5764 2.60281 23.5782H2.77845C3.42821 23.5782 3.97946 23.8775 4.44433 24.3637ZM0.936927 26.7156C0.936927 27.5397 1.27301 28.1593 1.8806 28.5546C2.12629 28.7143 2.393 28.8001 2.67332 28.8001C3.35393 28.8001 3.85879 28.4185 4.20698 27.733C4.36891 27.4141 4.44433 27.0652 4.44433 26.6943C4.44433 25.9798 4.15979 25.4223 3.67538 25.0082C3.3817 24.7572 3.0511 24.6313 2.69057 24.6313C1.94871 24.6313 1.41482 25.0768 1.0944 25.8681C0.986293 26.1356 0.936927 26.4196 0.936927 26.7156ZM8.40174 23.5782H8.52447C9.55042 23.5782 10.3307 24.1697 10.8251 25.2341C11.0228 25.6599 11.1287 26.1246 11.1287 26.6115V26.82C11.1287 27.9609 10.6553 28.8699 9.82765 29.4471C9.44449 29.7143 9.02122 29.8524 8.57715 29.8524H8.40174C7.44161 29.8524 6.67861 29.2884 6.19146 28.3068C5.96675 27.857 5.84879 27.3432 5.85012 26.82V26.6115C5.85012 25.4701 6.32653 24.5658 7.15022 23.9839C7.53315 23.7134 7.95676 23.5782 8.40174 23.5782ZM6.73563 26.7156C6.73563 27.5155 7.06588 28.104 7.63439 28.5179C7.90134 28.7121 8.19536 28.8001 8.50722 28.8001C9.17229 28.8001 9.6639 28.3993 10.006 27.7322C10.1692 27.4141 10.243 27.0646 10.243 26.6943C10.243 25.9504 9.94158 25.3821 9.42621 24.9703C9.14384 24.7444 8.82947 24.6313 8.48939 24.6313C7.74753 24.6313 7.21364 25.0768 6.89333 25.8681C6.785 26.1356 6.73563 26.4196 6.73563 26.7156ZM14.8098 24.7154C14.6761 24.6409 14.4258 24.6162 14.2814 24.6097C13.5415 24.5766 13.0063 25.0718 12.6923 25.8474C12.5838 26.115 12.5343 26.3982 12.5343 26.6943C12.5343 27.5957 12.9326 28.2268 13.6095 28.6116C13.8568 28.752 14.1761 28.7787 14.4464 28.7787C14.6841 28.7787 15.02 28.6056 15.231 28.4865L15.2675 28.4659H15.4313L15.4493 28.4702C15.6507 28.5201 15.8027 28.6718 15.8027 28.9293V29.0334C15.8027 29.6742 14.8174 29.8209 14.4414 29.8522C13.1147 29.9612 12.1225 29.0952 11.7442 27.5912C11.6785 27.33 11.6489 27.0706 11.6489 26.7984V26.5902C11.6489 25.4489 12.1255 24.5449 12.949 23.9635C13.332 23.6932 13.7555 23.5574 14.2003 23.5574H14.3759C14.8478 23.5574 15.2825 23.7167 15.6722 24.033L15.7042 24.0594L15.7244 24.099C15.7665 24.1819 15.8027 24.2778 15.8027 24.3764V24.4805C15.8027 24.7492 15.6336 24.8937 15.4295 24.9404L15.4125 24.944H15.3602C15.2281 24.944 14.9277 24.7814 14.8098 24.7154ZM17.6819 25.428C18.0259 25.0187 18.371 24.6101 18.7201 24.2076C18.8173 24.0952 19.1856 23.6199 19.3306 23.6199H19.4893L19.5073 23.6243C19.7094 23.6742 19.8606 23.8262 19.8606 24.0842V24.1883C19.8606 24.3643 19.6872 24.5688 19.5915 24.6893C19.3881 24.9456 19.174 25.1935 18.9658 25.4444L17.8959 26.7353C18.3566 27.284 18.8168 27.8331 19.2736 28.386C19.4003 28.5386 19.5261 28.6924 19.6508 28.8472C19.6948 28.9022 19.7597 28.9707 19.7967 29.0469C19.8363 29.1183 19.8606 29.1989 19.8606 29.2848V29.3935L19.8555 29.4186C19.8058 29.6588 19.6776 29.8524 19.4537 29.8524H19.3832C19.2367 29.8524 19.0712 29.6555 18.9709 29.5429C18.7641 29.3112 18.5644 29.0675 18.3617 28.8308L17.6819 28.0376V29.3054C17.6819 29.5974 17.5281 29.8321 17.2741 29.8321H17.2044C16.95 29.8321 16.7964 29.5974 16.7964 29.3054V22.1619C16.7964 21.8699 16.9501 21.6362 17.2044 21.6362H17.2741C17.5281 21.6362 17.6819 21.8699 17.6819 22.1619V25.428ZM28.7181 23.6199H28.8061C29.0717 23.6199 29.2489 23.8326 29.2489 24.1464C29.2489 24.5821 28.8984 24.6936 28.5953 24.6936C28.1976 24.6936 27.8179 24.9798 27.5437 25.3008C27.2019 25.7013 27.0523 26.2143 27.0523 26.7782V29.326C27.0523 29.618 26.8989 29.8524 26.6444 29.8524H26.5745C26.32 29.8524 26.1666 29.6181 26.1666 29.326V26.6319C26.1666 25.5974 26.5903 24.7529 27.2968 24.1606C27.7186 23.8068 28.2017 23.62 28.7181 23.62V23.6199ZM22.4246 28.669C22.7469 28.8028 23.1143 28.7837 23.4448 28.7152C23.614 28.6298 24.0464 28.4056 24.2055 28.4384L24.2302 28.4435L24.2531 28.4568C24.3502 28.5127 24.4429 28.5919 24.4925 28.7094C24.6084 28.9847 24.5527 29.2615 24.3251 29.4178L24.2493 29.4698C23.4094 30.046 22.516 29.9661 21.6787 29.428C21.2784 29.1708 20.9722 28.789 20.7463 28.3235L20.6935 28.2147C20.1542 27.1048 20.227 25.9373 20.8352 24.8819C21.0451 24.5171 21.3195 24.2353 21.6402 24.0148L21.7616 23.9316C22.5526 23.3888 23.4004 23.4261 24.2128 23.9024C24.6496 24.1585 25.0035 24.5403 25.2474 25.0424L25.2913 25.1329C25.4684 25.4977 25.2389 25.8155 25.0021 26.0328C24.7271 26.2849 24.4495 26.5883 24.186 26.8586C23.5984 27.4615 23.0117 28.0657 22.4246 28.669ZM21.6641 28.0342C22.3212 27.3646 22.9785 26.6944 23.6339 26.0219C23.8578 25.7924 24.1034 25.5542 24.3256 25.3128C24.1473 25.0458 23.8495 24.8534 23.5965 24.7386C23.0857 24.5073 22.5821 24.585 22.1137 24.9063C21.5006 25.3271 21.2395 25.9971 21.2623 26.8309C21.2715 27.1593 21.3457 27.4757 21.4924 27.7551C21.544 27.8536 21.6017 27.9461 21.6641 28.0342ZM16.8854 6.94479H19.4984V10.1195H20.8195C21.4297 10.1195 22.0572 9.99038 22.635 9.75772C22.919 9.64322 23.2376 9.48405 23.5176 9.28371C23.1488 8.71138 22.9604 7.98869 22.9051 7.27632C22.8297 6.30726 22.9943 5.04605 23.546 4.28764L23.8207 3.91007L24.148 4.22286C24.972 5.00965 25.6651 6.10923 25.7872 7.3627C26.7795 7.01582 27.9445 7.09786 28.819 7.69776L29.1778 7.94387L28.9891 8.38202C28.2494 10.0977 26.7029 10.6293 25.1911 10.5351C22.9288 17.2322 18.0035 20.4027 12.0316 20.4027C8.94626 20.4027 6.1157 19.0319 4.50375 15.7785L4.47735 15.7256L4.24252 15.1576C3.69767 13.7255 3.51666 12.1567 3.63939 10.5891L3.6763 10.1195H5.9108V6.94479H8.52367V3.83917H13.7498V0.733551H16.8854V6.94479Z" fill="#364548"/>
<path fill-rule="evenodd" clip-rule="evenodd" d="M25.3513 8.11866C25.5265 6.50025 24.5075 5.22913 23.8756 4.62555C23.1473 5.62626 23.0342 8.24891 24.1767 9.35311C23.539 10.0262 22.1955 10.6363 20.8198 10.6363H4.07356C3.93986 12.3431 4.19195 13.915 4.76778 15.2603L4.95827 15.6745C5.07889 15.9176 5.21069 16.1527 5.35308 16.3786C6.04158 16.4311 6.67637 16.4492 7.25711 16.434H7.25734C8.39859 16.4041 9.3298 16.2438 10.0356 15.9532C10.0854 15.9348 10.1394 15.9401 10.1861 15.9681C10.2327 15.9961 10.2683 16.0446 10.2855 16.1032C10.3026 16.1619 10.2998 16.2262 10.2778 16.2825C10.2557 16.3388 10.2161 16.3827 10.1673 16.4049C10.0734 16.4438 9.97556 16.4799 9.87455 16.5143H9.8742C9.31849 16.7029 8.72255 16.8298 7.95372 16.8861C7.99943 16.8871 7.90618 16.8943 7.90595 16.8943C7.87979 16.8963 7.84688 16.9008 7.82059 16.9024C7.518 16.9227 7.1914 16.9269 6.8575 16.9269C6.49228 16.9269 6.13266 16.9187 5.73053 16.8943L5.72025 16.9024C7.11553 18.7664 9.29724 19.8843 12.032 19.8843C17.8198 19.8843 22.7289 16.8349 24.9029 9.98901C26.4451 10.1771 27.9274 9.70963 28.6016 8.14528C27.5276 7.40874 26.1465 7.64357 25.3513 8.11866Z" fill="#22A0C8"/>
<path fill-rule="evenodd" clip-rule="evenodd" d="M25.3513 8.11866C25.5265 6.50025 24.5075 5.22913 23.8756 4.62555C23.1473 5.62626 23.0342 8.24891 24.1767 9.35311C23.5391 10.0262 22.1955 10.6363 20.8198 10.6363H5.06521C4.99687 13.2503 5.81302 15.2344 7.25698 16.434H7.25732C8.39857 16.4041 9.32979 16.2438 10.0355 15.9532C10.0854 15.9348 10.1394 15.9401 10.1861 15.9681C10.2327 15.9961 10.2683 16.0446 10.2855 16.1032C10.3026 16.1619 10.2998 16.2262 10.2778 16.2825C10.2557 16.3388 10.2161 16.3827 10.1673 16.4049C10.0734 16.4438 9.97555 16.4799 9.87453 16.5143H9.87419C9.31848 16.7029 8.67135 16.8461 7.90251 16.9024C7.90228 16.9024 7.88388 16.8814 7.88366 16.8814C9.85339 18.0823 12.7094 18.0779 15.984 16.583C19.6556 14.9064 23.0722 11.7125 25.4561 8.05944C25.4202 8.07873 25.3853 8.09842 25.3513 8.11866Z" fill="#37B1D9"/>
<path fill-rule="evenodd" clip-rule="evenodd" d="M4.10497 12.7101C4.20896 13.6245 4.43408 14.4805 4.76776 15.2603L4.95826 15.6745C5.07885 15.9177 5.21066 16.1527 5.35307 16.3786C6.04169 16.4312 6.67648 16.4492 7.25734 16.434C8.39859 16.4041 9.32981 16.2439 10.0356 15.9532C10.0855 15.9348 10.1394 15.9401 10.1861 15.9681C10.2327 15.9961 10.2684 16.0446 10.2855 16.1033C10.3026 16.1619 10.2998 16.2262 10.2778 16.2825C10.2557 16.3388 10.2161 16.3827 10.1673 16.4049C10.0734 16.4438 9.97557 16.4799 9.87455 16.5143H9.87421C9.3185 16.7029 8.67479 16.8379 7.90596 16.8944C7.87956 16.8963 7.83351 16.8967 7.80688 16.8985C7.50451 16.9186 7.18123 16.931 6.84721 16.931C6.4821 16.931 6.10865 16.9227 5.70675 16.8984C7.10204 18.7623 9.29724 19.8843 12.032 19.8843C16.987 19.8843 21.2978 17.649 23.7999 12.7101H4.10497Z" fill="#1B81A5"/>
<path fill-rule="evenodd" clip-rule="evenodd" d="M5.21594 12.7101C5.51214 14.3155 6.22395 15.5758 7.25732 16.434C8.39857 16.4041 9.32979 16.2439 10.0355 15.9532C10.0854 15.9348 10.1394 15.9401 10.186 15.9681C10.2327 15.9961 10.2683 16.0446 10.2854 16.1033C10.3026 16.1619 10.2998 16.2262 10.2778 16.2825C10.2557 16.3388 10.2161 16.3827 10.1673 16.4049C10.0734 16.4438 9.97555 16.4799 9.87453 16.5143H9.87419C9.31848 16.7029 8.66118 16.8379 7.89223 16.8944C9.86185 18.0951 12.7097 18.0778 15.9839 16.583C17.9648 15.6785 19.8712 14.3319 21.5815 12.7101H5.21594Z" fill="#1D91B4"/>
<path fill-rule="evenodd" clip-rule="evenodd" d="M6.34645 7.46173H8.61112V10.1534H6.34645V7.46173ZM6.53512 7.6861H6.71384V9.92914H6.53512V7.6861ZM6.87108 7.6861H7.057V9.92914H6.8712V7.6861H6.87108ZM7.21413 7.6861H7.40005V9.92914H7.21413V7.6861ZM7.55741 7.6861H7.74322V9.92914H7.55741V7.6861ZM7.90057 7.6861H8.08638V9.92914H7.90057V7.6861ZM8.24362 7.6861H8.42246V9.92914H8.24362V7.6861ZM8.95943 4.35611H11.2242V7.04762H8.95932V4.35611H8.95943ZM9.14821 4.58048H9.32682V6.82338H9.14821V4.58048ZM9.48417 4.58048H9.66998V6.82338H9.48429V4.58048H9.48417ZM9.82722 4.58048H10.013V6.82338H9.82722V4.58048ZM10.1704 4.58048H10.3562V6.82338H10.1704V4.58048ZM10.5135 4.58048H10.6995V6.82338H10.5135V4.58048ZM10.8566 4.58048H11.0356V6.82338H10.8566V4.58048Z" fill="#23A3C2"/>
<path fill-rule="evenodd" clip-rule="evenodd" d="M8.95943 7.4617H11.2242V10.1533H8.95931V7.4617H8.95943ZM9.14821 7.68607H9.32682V9.92911H9.14821V7.68607ZM9.48417 7.68607H9.66998V9.92911H9.48428V7.68607H9.48417ZM9.82722 7.68607H10.013V9.92911H9.82722V7.68607ZM10.1704 7.68607H10.3562V9.92911H10.1704V7.68607ZM10.5135 7.68607H10.6995V9.92911H10.5135V7.68607ZM10.8566 7.68607H11.0355V9.92911H10.8566V7.68607Z" fill="#34BBDE"/>
<path fill-rule="evenodd" clip-rule="evenodd" d="M11.5725 7.4617H13.8372V10.1533H11.5725V7.4617ZM11.7612 7.68607H11.9398V9.92911H11.7612V7.68607ZM12.0971 7.68607H12.2829V9.92911H12.0971V7.68607ZM12.4403 7.68607H12.6261V9.92911H12.4403V7.68607ZM12.7835 7.68607H12.9693V9.92911H12.7835V7.68607ZM13.1265 7.68607H13.3125V9.92911H13.1265V7.68607ZM13.4697 7.68607H13.6484V9.92911H13.4697V7.68607Z" fill="#23A3C2"/>
<path fill-rule="evenodd" clip-rule="evenodd" d="M11.5725 4.35611H13.8372V7.04762H11.5725V4.35611ZM11.7612 4.58048H11.9398V6.82338H11.7612V4.58048ZM12.0971 4.58048H12.283V6.82338H12.0971V4.58048ZM12.4403 4.58048H12.6261V6.82338H12.4403V4.58048ZM12.7835 4.58048H12.9693V6.82338H12.7835V4.58048ZM13.1265 4.58048H13.3126V6.82338H13.1265V4.58048ZM13.4697 4.58048H13.6484V6.82338H13.4697V4.58048ZM14.1855 7.46173H16.4502V10.1534H14.1855V7.46173ZM14.3743 7.6861H14.5529V9.92914H14.3743V7.6861ZM14.7102 7.6861H14.896V9.92914H14.7102V7.6861ZM15.0533 7.6861H15.2391V9.92914H15.0533V7.6861ZM15.3965 7.6861H15.5824V9.92914H15.3965V7.6861ZM15.7396 7.6861H15.9255V9.92914H15.7396V7.6861ZM16.0828 7.6861H16.2615V9.92914H16.0828V7.6861Z" fill="#34BBDE"/>
<path fill-rule="evenodd" clip-rule="evenodd" d="M14.1855 4.35611H16.4502V7.04762H14.1855V4.35611ZM14.3743 4.58048H14.5529V6.82338H14.3743V4.58048ZM14.7102 4.58048H14.8961V6.82338H14.7102V4.58048ZM15.0533 4.58048H15.2391V6.82338H15.0533V4.58048ZM15.3965 4.58048H15.5824V6.82338H15.3965V4.58048ZM15.7396 4.58048H15.9255V6.82338H15.7396V4.58048ZM16.0828 4.58048H16.2615V6.82338H16.0828V4.58048Z" fill="#23A3C2"/>
<path fill-rule="evenodd" clip-rule="evenodd" d="M14.1855 1.25034H16.4502V3.94225H14.1855V1.25034ZM14.3743 1.47457H14.5529V3.71775H14.3743V1.47444V1.47457ZM14.7102 1.47457H14.8961V3.71775H14.7102V1.47444V1.47457ZM15.0533 1.47457H15.2391V3.71775H15.0533V1.47444V1.47457ZM15.3965 1.47457H15.5824V3.71775H15.3965V1.47444V1.47457ZM15.7396 1.47457H15.9255V3.71775H15.7396V1.47444V1.47457ZM16.0828 1.47457H16.2615V3.71775H16.0828V1.47444V1.47457Z" fill="#34BBDE"/>
<path fill-rule="evenodd" clip-rule="evenodd" d="M16.7985 7.4617H19.0631V10.1533H16.7985V7.4617ZM16.987 7.68607H17.1659V9.92911H16.9871V7.68607H16.987ZM17.323 7.68607H17.5089V9.92911H17.3231V7.68607H17.323ZM17.6663 7.68607H17.8522V9.92911H17.6663V7.68607ZM18.0093 7.68607H18.1952V9.92911H18.0093V7.68607ZM18.3526 7.68607H18.5384V9.92911H18.3526V7.68607ZM18.6956 7.68607H18.8743V9.92911H18.6956V7.68607Z" fill="#23A3C2"/>
<path fill-rule="evenodd" clip-rule="evenodd" d="M11.0824 14.5174C11.1652 14.5161 11.2473 14.5343 11.3241 14.571C11.4009 14.6078 11.4708 14.6623 11.5297 14.7314C11.5886 14.8005 11.6354 14.8828 11.6673 14.9736C11.6992 15.0643 11.7156 15.1617 11.7156 15.2601C11.7156 15.3585 11.6991 15.4559 11.6672 15.5466C11.6352 15.6374 11.5884 15.7197 11.5295 15.7888C11.4706 15.8578 11.4007 15.9123 11.3239 15.949C11.2471 15.9857 11.1649 16.0039 11.0822 16.0026C10.9179 15.9999 10.7612 15.9205 10.6458 15.7815C10.5305 15.6425 10.4659 15.4551 10.4659 15.2598C10.4659 15.0646 10.5306 14.8772 10.646 14.7383C10.7614 14.5993 10.9182 14.52 11.0824 14.5174Z" fill="#D3ECEC"/>
<path fill-rule="evenodd" clip-rule="evenodd" d="M11.0824 14.728C11.1395 14.728 11.194 14.7408 11.2443 14.764C11.2096 14.7879 11.1825 14.8248 11.1672 14.8689C11.1519 14.9129 11.1492 14.9618 11.1596 15.0078C11.17 15.0539 11.1928 15.0946 11.2246 15.1237C11.2564 15.1528 11.2954 15.1686 11.3355 15.1687C11.4046 15.1687 11.4646 15.1232 11.4957 15.0559C11.5325 15.1612 11.5398 15.2779 11.5166 15.3886C11.4933 15.4992 11.4407 15.5981 11.3666 15.6705C11.2924 15.743 11.2006 15.7851 11.1048 15.7908C11.0089 15.7965 10.914 15.7653 10.8342 15.702C10.7543 15.6387 10.6938 15.5465 10.6614 15.4391C10.629 15.3317 10.6265 15.2148 10.6544 15.1056C10.6822 14.9964 10.7388 14.9007 10.8159 14.8327C10.893 14.7648 10.9864 14.728 11.0824 14.728ZM0.0316925 12.9785H29.0945C28.4618 12.7878 27.0925 12.53 27.3183 11.5443C26.1675 13.1268 23.3926 12.6546 22.6922 11.8743C21.9124 13.2186 17.3724 12.7076 17.0557 11.6603C16.078 13.024 13.0485 13.024 12.0708 11.6603C11.7539 12.7076 7.2139 13.2186 6.43398 11.8742C5.73371 12.6546 2.95892 13.1268 1.80819 11.5444C2.03399 12.53 0.664654 12.7878 0.0316925 12.9787" fill="#364548"/>
<path fill-rule="evenodd" clip-rule="evenodd" d="M12.7431 19.8683C11.1959 18.9957 10.3467 17.8093 9.87417 16.5144C9.29938 16.7093 8.6086 16.834 7.80583 16.8875C7.50346 16.9076 7.18532 16.9179 6.85165 16.9179C6.46677 16.9179 6.06122 16.9043 5.63544 16.8776C7.05437 18.5631 8.79989 19.8607 12.032 19.8843C12.2706 19.8843 12.5074 19.8789 12.7431 19.8683Z" fill="#BDD9D7"/>
<path fill-rule="evenodd" clip-rule="evenodd" d="M10.4489 17.7093C10.2349 17.3639 10.0272 16.9299 9.87455 16.5141C9.29975 16.7093 8.60873 16.834 7.80583 16.8876C8.35732 17.2433 9.14593 17.573 10.449 17.7093" fill="#D3ECEC"/>
</g>
<defs>
<clipPath id="clip0">
<rect width="29.254" height="29.2063" fill="white" transform="translate(0.0316925 0.730164)"/>
</clipPath>
</defs>
</svg>
