<svg width="30" height="30" viewBox="0 0 30 30" fill="none" xmlns="http://www.w3.org/2000/svg">
<g clip-path="url(#clip0)">
<path d="M0.612381 24.2764L0.854984 24.0292L12.3285 8.17982L12.3527 8.01202L7.2951 1.09563C6.87114 0.516281 5.67813 0.662783 5.53917 1.31135L0.612381 24.2764Z" fill="#FFC24A"/>
<path d="M0.755569 24.0879L0.938978 23.8275L12.2924 8.14413L7.24722 1.19961C6.82795 0.62633 5.76315 0.7725 5.62556 1.41425L0.755569 24.0879Z" fill="#FFA712"/>
<g filter="url(#filter0_i)">
<path d="M0.755569 24.0879L0.938978 23.8275L12.2924 8.14413L7.24722 1.19961C6.82795 0.62633 5.76315 0.7725 5.62556 1.41425L0.755569 24.0879Z" fill="#FDA613"/>
</g>
<path d="M16.0399 13.2435L19.8058 10.4358L16.0387 5.20049C15.6812 4.70491 14.6828 4.70342 14.329 5.20049L12.3163 7.99467V8.2326L16.0398 13.2435H16.0399Z" fill="#F4BD62"/>
<path d="M15.9727 13.1266L19.6339 10.3969L15.9727 5.32156C15.6251 4.8398 14.7805 4.7893 14.4365 5.27248L12.4133 8.11007L12.3527 8.25516L15.9727 13.1266Z" fill="#FFA50E"/>
<g filter="url(#filter1_i)">
<path d="M15.9727 13.1266L19.6339 10.3969L15.9727 5.32156C15.6251 4.8398 14.7805 4.7893 14.4365 5.27248L12.4133 8.11007L12.3527 8.25516L15.9727 13.1266Z" fill="#FDA613"/>
</g>
<path d="M0.612381 24.2764L0.722312 24.1959L1.12181 24.0777L15.8033 13.4291L15.9894 13.0605L12.3269 7.97955L0.612381 24.2764Z" fill="#F6820C"/>
<path d="M16.5102 29.6467L29.7974 24.2519L26.003 7.23945C25.8843 6.70718 24.9874 6.49679 24.464 6.87839L0.612381 24.2764L13.8233 29.6463C14.2339 29.8132 14.6964 29.9008 15.1667 29.9009C15.637 29.901 16.0995 29.8135 16.5102 29.6467Z" fill="#FDE068"/>
<path d="M29.6783 24.2067L25.9127 7.3234C25.795 6.79513 25.049 6.57658 24.5297 6.95536L0.759781 24.2433L13.8257 29.56C14.2332 29.7256 14.6921 29.8126 15.1588 29.8127C15.6255 29.8128 16.0845 29.726 16.4921 29.5605L29.6784 24.2066L29.6783 24.2067Z" fill="#FCCA3F"/>
<path d="M16.5101 29.4877C16.0994 29.6545 15.6369 29.742 15.1666 29.7419C14.6964 29.7418 14.2339 29.6542 13.8233 29.4873L0.718793 24.1946L0.612518 24.2764L13.8233 29.6463C14.234 29.8132 14.6964 29.9008 15.1667 29.9009C15.637 29.901 16.0995 29.8135 16.5102 29.6467L29.7974 24.2519L29.7648 24.1061L16.5102 29.4878L16.5101 29.4877Z" fill="#EEAB37"/>
</g>
<defs>
<filter id="filter0_i" x="0.755569" y="0.841339" width="11.5368" height="23.2466" filterUnits="userSpaceOnUse" color-interpolation-filters="sRGB">
<feFlood flood-opacity="0" result="BackgroundImageFix"/>
<feBlend mode="normal" in="SourceGraphic" in2="BackgroundImageFix" result="shape"/>
<feColorMatrix in="SourceAlpha" type="matrix" values="0 0 0 0 0 0 0 0 0 0 0 0 0 0 0 0 0 0 127 0" result="hardAlpha"/>
<feOffset/>
<feGaussianBlur stdDeviation="124.619"/>
<feComposite in2="hardAlpha" operator="arithmetic" k2="-1" k3="1"/>
<feColorMatrix type="matrix" values="0 0 0 0 0 0 0 0 0 0 0 0 0 0 0 0 0 0 0.06 0"/>
<feBlend mode="normal" in2="shape" result="effect1_innerShadow"/>
</filter>
<filter id="filter1_i" x="12.3527" y="4.9342" width="7.28114" height="8.19235" filterUnits="userSpaceOnUse" color-interpolation-filters="sRGB">
<feFlood flood-opacity="0" result="BackgroundImageFix"/>
<feBlend mode="normal" in="SourceGraphic" in2="BackgroundImageFix" result="shape"/>
<feColorMatrix in="SourceAlpha" type="matrix" values="0 0 0 0 0 0 0 0 0 0 0 0 0 0 0 0 0 0 127 0" result="hardAlpha"/>
<feOffset dx="7.12109" dy="-64.0898"/>
<feGaussianBlur stdDeviation="24.9238"/>
<feComposite in2="hardAlpha" operator="arithmetic" k2="-1" k3="1"/>
<feColorMatrix type="matrix" values="0 0 0 0 0 0 0 0 0 0 0 0 0 0 0 0 0 0 0.09 0"/>
<feBlend mode="normal" in2="shape" result="effect1_innerShadow"/>
</filter>
<clipPath id="clip0">
<rect width="29.254" height="29.2063" fill="white" transform="translate(0.612381 0.730164)"/>
</clipPath>
</defs>
</svg>
