<svg width="30" height="30" viewBox="0 0 30 30" fill="none" xmlns="http://www.w3.org/2000/svg">
<g clip-path="url(#clip0)">
<path d="M29.3898 14.0321L16.6172 1.28101C15.8821 0.54663 14.6891 0.54663 13.953 1.28101L11.3007 3.92898L14.6653 7.28805C15.4472 7.02428 16.3437 7.20123 16.967 7.82346C17.5932 8.44969 17.7692 9.35246 17.4986 10.1356L20.7411 13.3729C21.5256 13.1031 22.4307 13.2776 23.0573 13.9042C23.933 14.7781 23.933 16.1945 23.0573 17.069C22.1814 17.9436 20.7627 17.9436 19.8863 17.069C19.2277 16.4107 19.0649 15.4449 19.3984 14.6348L16.3745 11.6158L16.3741 19.5605C16.5933 19.6687 16.7936 19.8117 16.967 19.9838C17.8427 20.8577 17.8427 22.2742 16.967 23.1494C16.0911 24.0235 14.6717 24.0235 13.797 23.1494C12.9214 22.2742 12.9214 20.8578 13.797 19.9839C14.0069 19.7743 14.2563 19.6083 14.5308 19.4955V11.4768C14.2559 11.3647 14.0064 11.1986 13.797 10.9884C13.1336 10.3269 12.974 9.35497 13.314 8.54164L9.99733 5.23003L1.23941 13.9731C0.503489 14.7082 0.503489 15.8994 1.23941 16.6339L14.0122 29.3852C14.7476 30.1197 15.9404 30.1197 16.6766 29.3852L29.3897 16.6931C30.1254 15.9583 30.1254 14.7665 29.3897 14.0321" fill="#DE4C36"/>
</g>
<defs>
<clipPath id="clip0">
<rect width="29.254" height="29.2063" fill="white" transform="translate(0.687469 0.730164)"/>
</clipPath>
</defs>
</svg>
