<svg width="33" height="34" viewBox="0 0 33 34" fill="none" xmlns="http://www.w3.org/2000/svg">
<g clip-path="url(#clip0)">
<path fill-rule="evenodd" clip-rule="evenodd" d="M0 0H32.9108V33.5873H0V0Z" fill="white"/>
<path fill-rule="evenodd" clip-rule="evenodd" d="M1.45193 22.3412H2.44222V18.3375L3.98876 21.8282C4.16394 22.2478 4.41544 22.4034 4.90289 22.4034C5.39052 22.4034 5.62665 22.2478 5.80951 21.8282L7.34837 18.3375V22.3412H8.34634V18.3375C8.34634 17.9489 8.19387 17.762 7.87391 17.6609C7.11976 17.4277 6.61693 17.6299 6.38848 18.1507L4.87267 21.6027L3.40996 18.1507C3.18902 17.63 2.67852 17.4279 1.91685 17.6609C1.60457 17.762 1.45211 17.9487 1.45211 18.3375V22.3412H1.45193ZM9.16895 19.0838H10.1669V21.284C10.1594 21.4083 10.205 21.6883 10.7459 21.6958C11.0278 21.7036 12.8941 21.6958 12.9093 21.6958V19.0681H13.9073V22.6677C13.9073 23.5539 12.8332 23.7482 12.3303 23.7561H9.19166V23.0798H12.3379C12.9778 23.0098 12.9016 22.6834 12.9016 22.5745V22.31H10.7915C9.80871 22.3022 9.17647 21.859 9.16895 21.3537C9.16895 21.3072 9.19166 19.0991 9.16895 19.0838ZM30.5751 16.5337C29.9659 16.5182 29.4933 16.5804 29.0972 16.7515C28.9831 16.7984 28.8001 16.7984 28.785 16.946C28.846 17.0078 28.8533 17.109 28.9068 17.1948C28.9981 17.3504 29.1583 17.56 29.3029 17.6689C29.4631 17.7935 29.623 17.9177 29.7904 18.0266C30.0874 18.2131 30.4226 18.322 30.712 18.5086C30.8797 18.6175 31.0472 18.7574 31.2148 18.8742C31.2985 18.9364 31.3519 19.0376 31.4586 19.0763V19.0528C31.4054 18.9831 31.39 18.882 31.3369 18.804C31.2606 18.7264 31.1844 18.6562 31.1081 18.5787C30.8873 18.2755 30.613 18.011 30.3157 17.7935C30.0719 17.6224 29.5387 17.3892 29.4397 17.1016L29.4246 17.0859C29.592 17.0702 29.7902 17.008 29.9502 16.9613C30.2093 16.8916 30.4453 16.9069 30.7118 16.837C30.8339 16.8059 30.9556 16.767 31.0777 16.7281V16.6583C30.9406 16.5183 30.8416 16.3317 30.697 16.1996C30.3085 15.8576 29.8817 15.5232 29.4398 15.2434C29.2037 15.0879 28.8989 14.9867 28.6478 14.8548C28.5561 14.8081 28.404 14.7848 28.3507 14.707C28.2132 14.5361 28.1373 14.3106 28.0382 14.1083C27.8175 13.6807 27.6041 13.2066 27.4137 12.7556C27.2766 12.4525 27.1926 12.1493 27.0253 11.8694C26.2405 10.5477 25.3872 9.74691 24.0769 8.96175C23.7952 8.79848 23.4601 8.72843 23.1019 8.64305C22.9115 8.63521 22.7211 8.6197 22.5306 8.61186C22.4085 8.55749 22.2868 8.40973 22.18 8.33968C21.7459 8.05984 20.626 7.45346 20.3059 8.25413C20.1001 8.75944 20.6106 9.25692 20.7858 9.51359C20.9156 9.69237 21.0829 9.89449 21.1746 10.0966C21.2277 10.2287 21.2429 10.3688 21.2963 10.5087C21.418 10.8508 21.5324 11.2317 21.6924 11.5505C21.7761 11.7138 21.8674 11.8849 21.9741 12.0327C22.0351 12.1182 22.1418 12.1571 22.1645 12.297C22.0578 12.4526 22.0505 12.6858 21.9895 12.8802C21.7151 13.7588 21.8218 14.8471 22.2103 15.4924C22.3323 15.6867 22.6217 16.1143 23.0103 15.951C23.3532 15.8111 23.2769 15.368 23.3759 14.9792C23.3989 14.886 23.3836 14.8238 23.4292 14.7616V14.7771C23.5359 14.9947 23.6426 15.2047 23.7416 15.4223C23.9777 15.8032 24.3892 16.1998 24.7321 16.4642C24.9148 16.6041 25.0595 16.8452 25.288 16.9306V16.9071H25.273C25.2272 16.8374 25.1586 16.8062 25.0976 16.7517C24.9605 16.6117 24.8082 16.4406 24.7015 16.2852C24.3817 15.8499 24.1 15.3678 23.8485 14.8703C23.7264 14.6293 23.6197 14.365 23.521 14.124C23.4749 14.0306 23.4749 13.8907 23.3989 13.8442C23.2846 14.0151 23.1172 14.163 23.0331 14.3728C22.8883 14.707 22.8732 15.1191 22.82 15.5467C22.7892 15.5546 22.8046 15.5467 22.7892 15.5622C22.5458 15.5002 22.4618 15.2436 22.3704 15.0259C22.142 14.4739 22.1037 13.5877 22.3018 12.9501C22.3551 12.7868 22.5838 12.2737 22.4925 12.1182C22.4464 11.9705 22.2944 11.8851 22.2104 11.7684C22.1114 11.6206 22.005 11.4341 21.9364 11.2709C21.7537 10.8354 21.6624 10.3535 21.4641 9.91802C21.3725 9.71589 21.2126 9.50592 21.0831 9.31948C20.9383 9.10951 20.7786 8.96175 20.6642 8.7131C20.6262 8.62754 20.5729 8.48762 20.6338 8.3944C20.6489 8.33219 20.6796 8.30884 20.7402 8.29333C20.8392 8.20778 21.1213 8.31668 21.2203 8.36321C21.502 8.47978 21.7382 8.58868 21.9743 8.75178C22.081 8.82949 22.1954 8.97725 22.3325 9.01629H22.4927C22.7365 9.07065 23.0105 9.03179 23.239 9.10167C23.6428 9.23392 24.0083 9.42821 24.3361 9.63818C25.3339 10.2834 26.1569 11.2008 26.7128 12.297C26.8041 12.4758 26.8422 12.6391 26.9262 12.8257C27.0864 13.2068 27.2844 13.5953 27.4441 13.9686C27.6042 14.334 27.7565 14.7072 27.985 15.0104C28.0994 15.1737 28.5563 15.2591 28.762 15.3446C28.9145 15.4145 29.1504 15.4769 29.2879 15.5622C29.5467 15.7255 29.8057 15.9121 30.0495 16.0909C30.1713 16.184 30.5524 16.3783 30.5751 16.5337Z" fill="#00678C"/>
<path fill-rule="evenodd" clip-rule="evenodd" d="M22.8048 9.77774C22.6754 9.77774 22.584 9.79325 22.4927 9.8166V9.83211H22.5077C22.5687 9.95652 22.6754 10.0421 22.7515 10.1508C22.8125 10.2752 22.8659 10.3996 22.9269 10.524L22.9419 10.5085C23.0486 10.4308 23.1021 10.3064 23.1021 10.1198C23.0563 10.0654 23.0488 10.0109 23.0107 9.95652C22.965 9.8788 22.8659 9.83995 22.8048 9.77774Z" fill="#00678C"/>
<path fill-rule="evenodd" clip-rule="evenodd" d="M14.6691 22.3412H17.5334C17.8686 22.3412 18.1887 22.2715 18.4476 22.1469C18.8817 21.9448 19.0875 21.6728 19.0875 21.3152V20.5689C19.0875 20.2814 18.8514 20.0091 18.3793 19.8226C18.1355 19.7294 17.8307 19.6749 17.5336 19.6749H16.3301C15.9263 19.6749 15.7359 19.5503 15.6825 19.2784C15.6749 19.2474 15.6749 19.2162 15.6749 19.1852V18.7264C15.6749 18.7029 15.6749 18.6721 15.6825 18.641C15.7357 18.4311 15.8424 18.3765 16.193 18.3378H19.1257V17.6612H16.3374C15.9336 17.6612 15.7204 17.6848 15.53 17.747C14.9433 17.9334 14.6843 18.2289 14.6843 18.7496V19.3408C14.6843 19.7993 15.1871 20.1882 16.0403 20.2814C16.1317 20.2892 16.2307 20.2893 16.3297 20.2893H17.3583C17.3963 20.2893 17.4342 20.2892 17.4646 20.2971C17.7771 20.3281 17.9142 20.3825 18.0055 20.4989C18.0665 20.5611 18.0818 20.6156 18.0818 20.6857V21.2765C18.0818 21.3462 18.0361 21.44 17.9447 21.5175C17.8531 21.5951 17.7083 21.6496 17.5179 21.6574C17.4798 21.6574 17.4573 21.6653 17.4189 21.6653H14.6691V22.3412ZM25.2882 21.1675C25.2882 21.8594 25.7987 22.248 26.8195 22.3259C26.9186 22.3337 27.0099 22.3412 27.1089 22.3412H29.699V21.6649H27.0862C26.5069 21.6649 26.2861 21.5172 26.2861 21.1596V17.6611H25.288V21.1675H25.2882ZM19.7196 21.1983V18.7885C19.7196 18.1742 20.1461 17.8008 20.9767 17.6844C21.068 17.6766 21.1594 17.6687 21.2432 17.6687H23.1323C23.2313 17.6687 23.3153 17.6766 23.4143 17.6844C24.2446 17.8008 24.6634 18.1742 24.6634 18.7885V21.1983C24.6634 21.6958 24.4884 21.9603 24.0768 22.1392L25.0519 23.0408H23.9018L23.1094 22.3102L22.3093 22.3569H21.2429C21.0679 22.3569 20.8696 22.3337 20.6639 22.2793C20.032 22.1002 19.7196 21.7582 19.7196 21.1983ZM20.7937 21.1443C20.7937 21.1753 20.809 21.2061 20.8167 21.2453C20.87 21.525 21.1288 21.6806 21.5249 21.6806H22.424L21.6014 20.9186H22.7515L23.4751 21.5874C23.6126 21.5095 23.6962 21.4006 23.7266 21.2607C23.7343 21.2297 23.7343 21.191 23.7343 21.1596V18.8505C23.7343 18.8195 23.7343 18.7886 23.7266 18.7573C23.6733 18.4931 23.4145 18.3455 23.0259 18.3455H21.5249C21.0831 18.3455 20.7937 18.5398 20.7937 18.8505V21.1443ZM30.1563 22.349H30.301V21.7817H30.4914V21.6649H29.9582V21.7817H30.1563V22.349ZM31.2608 22.349H31.3979V21.6649H31.1925L31.0248 22.1316L30.8421 21.6649H30.6441V22.349H30.7735V21.8284H30.7812L30.9715 22.349H31.0706L31.2609 21.8284V22.349H31.2608Z" fill="#CE8B2C"/>
</g>
<defs>
<clipPath id="clip0">
<rect width="32.9108" height="33.5873" fill="white"/>
</clipPath>
</defs>
</svg>
