<svg width="30" height="31" viewBox="0 0 30 31" fill="none" xmlns="http://www.w3.org/2000/svg">
<g clip-path="url(#clip0)">
<path d="M26.3391 0H3.15538C1.6015 0 0.341827 1.32233 0.341827 2.95351V27.2904C0.341827 28.9216 1.6015 30.2439 3.15538 30.2439H26.3391C27.8929 30.2439 29.1526 28.9216 29.1526 27.2904V2.95351C29.1526 1.32233 27.8929 0 26.3391 0Z" fill="url(#paint0_linear)"/>
<path d="M24.0567 3.9317H17.9704C17.2246 3.9317 16.6199 4.56642 16.6199 5.34938V15.7457C16.6199 16.5287 17.2246 17.1634 17.9704 17.1634H24.0567C24.8026 17.1634 25.4072 16.5287 25.4072 15.7457V5.34938C25.4072 4.56642 24.8026 3.9317 24.0567 3.9317Z" fill="white"/>
<path d="M11.524 3.9317H5.43774C4.69188 3.9317 4.08723 4.56642 4.08723 5.34938V23.3067C4.08723 24.0897 4.69188 24.7244 5.43774 24.7244H11.524C12.2699 24.7244 12.8745 24.0897 12.8745 23.3067V5.34938C12.8745 4.56642 12.2699 3.9317 11.524 3.9317Z" fill="white"/>
</g>
<defs>
<linearGradient id="paint0_linear" x1="14.7472" y1="0" x2="14.7472" y2="30.2439" gradientUnits="userSpaceOnUse">
<stop stop-color="#0091E6"/>
<stop offset="1" stop-color="#0079BF"/>
</linearGradient>
<clipPath id="clip0">
<rect width="28.8108" height="30.2439" fill="white" transform="translate(0.341827)"/>
</clipPath>
</defs>
</svg>
