<svg width="32" height="34" viewBox="0 0 32 34" fill="none" xmlns="http://www.w3.org/2000/svg">
<g clip-path="url(#clip0)">
<path d="M25.1191 1.25809H22.5267L25.2232 3.5145V4.58762H19.6679V3.33089H22.3644L19.6679 1.07448V0H25.1208L25.1191 1.25809ZM18.565 1.25809H15.9691L18.6691 3.5145V4.58762H13.1121V3.33089H15.8085L13.1121 1.07448V0H18.565V1.25809ZM12.0744 1.30978H9.27738V3.2792H12.0744V4.58898H7.2868V0H12.0744V1.30978Z" fill="#131313"/>
<path d="M3.47329 31.2702L0.628601 6.68356H31.8814L29.0331 31.2661L16.2356 34L3.47329 31.2702Z" fill="#1572B6"/>
<path d="M16.255 31.9109L26.5961 29.7007L29.0278 8.69376H16.255V31.9109Z" fill="#33A9DC"/>
<path d="M16.255 17.6011H21.4326L21.7891 14.5137H16.255V11.4997H26.0667L25.9732 12.309L25.0114 20.6191H16.255V17.6011Z" fill="white"/>
<path d="M16.2762 25.4327H16.2585L11.9015 24.5255L11.6227 22.1208H7.69797L8.24679 26.8554L16.262 28.5745H16.285V25.4327H16.2762Z" fill="#EBEBEB"/>
<path d="M21.1008 20.4873L20.6297 24.5228L16.2656 25.43V28.5718L24.2861 26.8581L24.3443 26.348L25.0255 20.486H21.1008V20.4873Z" fill="white"/>
<path d="M16.2691 11.4997V14.5151H6.82093L6.73975 13.8377L6.56152 12.309L6.46799 11.4997H16.2691ZM16.255 17.6011V20.6164H11.9474L11.8715 19.9391L11.6932 18.4104L11.5997 17.6011H16.2532H16.255Z" fill="#EBEBEB"/>
</g>
<defs>
<clipPath id="clip0">
<rect width="31.2528" height="34" fill="white" transform="translate(0.628601)"/>
</clipPath>
</defs>
</svg>
