<svg width="32" height="28" viewBox="0 0 32 28" fill="none" xmlns="http://www.w3.org/2000/svg">
<g clip-path="url(#clip0)">
<path d="M3.37682 25.2473L0.475861 0.799988L31.7282 0.809319L28.8517 25.2287L16.0777 27.9907L3.37682 25.2473ZM26.4992 23.913L28.9248 2.97412H16.1264L16.2239 26.0685L26.4992 23.913ZM14.9319 6.04404H11.8237L11.7872 18.5756L5.75366 17.3159L5.76585 20.1806L14.9319 22.0748V6.04404Z" fill="#D4B82F"/>
<path d="M16.1251 2.96619H28.9235L26.4979 23.905L16.1251 26.0605V2.96619ZM25.8397 20.3965L26.6807 12.5678L20.4644 13.0997V8.91938L27.0951 8.90072L27.3633 6.04542L17.3562 6.08275L17.4903 16.4775L23.536 15.6844L23.4506 17.9985L17.3562 19.2395L17.4171 22.0761L25.8397 20.3965Z" fill="#FDD83C"/>
</g>
<defs>
<clipPath id="clip0">
<rect width="31.2528" height="27.2" fill="white" transform="translate(0.475861 0.799988)"/>
</clipPath>
</defs>
</svg>
