<svg width="54" height="47" viewBox="0 0 54 47" fill="none" xmlns="http://www.w3.org/2000/svg">
<g clip-path="url(#clip0)">
<path d="M26.7776 33.7241C26.6496 33.7241 26.5224 33.6764 26.4102 33.5846L25.2407 32.6005C25.066 32.4617 25.1513 32.4126 25.2089 32.3843C25.4418 32.2684 25.489 32.2422 25.7376 32.0416C25.7638 32.0204 25.798 32.0279 25.8247 32.0503L26.7231 32.808C26.7556 32.833 26.8016 32.833 26.8317 32.808L30.3348 29.9342C30.3673 29.908 30.3883 29.8544 30.3883 29.7996V24.0544C30.3883 23.9971 30.3673 23.946 30.3341 23.9173L26.8324 21.046C26.8 21.0186 26.757 21.0186 26.7246 21.046L23.2235 23.9173C23.1896 23.9447 23.168 23.9983 23.168 24.0532V29.7983C23.168 29.8532 23.1891 29.9055 23.2224 29.9317L24.1817 30.7193C24.7026 31.0895 25.0209 30.6533 25.0209 30.2146V24.5442C25.0209 24.4632 25.0656 24.4009 25.1226 24.4009H25.5663C25.6215 24.4009 25.6671 24.4632 25.6671 24.5442V30.2171C25.6671 31.2041 25.2883 31.7712 24.6298 31.7712C24.4272 31.7712 24.2676 31.7712 23.8222 31.4596L22.9032 30.7069C22.7915 30.6142 22.6988 30.4816 22.6343 30.3222C22.5699 30.1628 22.5359 29.9822 22.5358 29.7983V24.0532C22.5358 23.6793 22.6761 23.3303 22.9032 23.1459L26.4098 20.2708C26.6317 20.0926 26.9263 20.0926 27.1464 20.2708L30.6487 23.1471C30.7604 23.2395 30.8531 23.3719 30.9175 23.5311C30.982 23.6903 31.016 23.8707 31.0161 24.0544V29.7996C31.0161 30.1722 30.8749 30.5199 30.6487 30.7069L27.1464 33.5819C27.0341 33.6738 26.9068 33.722 26.7773 33.7215" fill="#689F63"/>
<path d="M27.8596 29.7653C26.3269 29.7653 26.0055 28.7654 26.0055 27.9266C26.0055 27.8469 26.0507 27.7833 26.1069 27.7833H26.5594C26.6094 27.7833 26.6515 27.835 26.6594 27.9052C26.7278 28.5605 26.9312 28.891 27.858 28.891C28.5964 28.891 28.9103 28.6539 28.9103 28.0975C28.9103 27.7772 28.8209 27.5392 27.6739 27.3796C26.7146 27.245 26.1218 26.9447 26.1218 25.8542C26.1218 24.8497 26.7181 24.2515 27.7169 24.2515C28.8384 24.2515 29.3943 24.8049 29.4645 25.9938C29.4656 26.0138 29.4639 26.0339 29.4593 26.0529C29.4547 26.0719 29.4474 26.0893 29.4378 26.104C29.4283 26.1188 29.4167 26.1306 29.4038 26.1386C29.3908 26.1467 29.3769 26.1508 29.3628 26.1508H28.9077C28.8603 26.1508 28.8191 26.1035 28.8095 26.0387C28.6998 25.3495 28.435 25.1289 27.7151 25.1289C26.9093 25.1289 26.8154 25.5277 26.8154 25.8268C26.8154 26.1895 26.9259 26.2954 28.0133 26.4998C29.09 26.7029 29.6013 26.9896 29.6013 28.0651C29.6013 29.1493 28.9647 29.7712 27.8545 29.7712L27.8596 29.7653ZM32.1214 23.6783H32.2389C32.3353 23.6783 32.3538 23.5823 32.3538 23.5262C32.3538 23.3792 32.2827 23.3792 32.2433 23.3792H32.1223L32.1214 23.6783ZM31.9785 23.2072H32.2389C32.3283 23.2072 32.5037 23.2072 32.5037 23.4913C32.5037 23.6895 32.4143 23.7306 32.3608 23.7555C32.4651 23.7655 32.4721 23.8627 32.4862 23.9998C32.4932 24.0858 32.5046 24.2341 32.5256 24.2839H32.3652C32.3608 24.2341 32.3362 23.9599 32.3362 23.945C32.3257 23.8839 32.3108 23.854 32.2573 23.854H32.1249V24.2852H31.9785V23.2072ZM31.6654 23.7431C31.6654 24.1892 31.9188 24.5506 32.2301 24.5506C32.544 24.5506 32.7975 24.1818 32.7975 23.7431C32.7975 23.2957 32.5405 22.9405 32.2292 22.9405C31.9223 22.9405 31.6645 23.2907 31.6645 23.7418L31.6654 23.7431ZM32.9062 23.7456C32.9062 24.274 32.6019 24.7052 32.231 24.7052C31.8627 24.7052 31.5558 24.279 31.5558 23.7456C31.5558 23.2022 31.8697 22.7859 32.231 22.7859C32.5949 22.7859 32.9053 23.2034 32.9053 23.7456" fill="#689F63"/>
<path fill-rule="evenodd" clip-rule="evenodd" d="M15.9298 11.2498C15.9298 11.0205 15.8447 10.8099 15.7055 10.6959L11.9914 7.65879C11.9293 7.60734 11.8591 7.57864 11.7873 7.57529H11.7488C11.6776 7.57903 11.6074 7.60645 11.5437 7.65879L7.82977 10.6959C7.76149 10.7524 7.70481 10.8333 7.66539 10.9306C7.62597 11.0279 7.60519 11.1382 7.60512 11.2505L7.61327 19.4308C7.61327 19.5442 7.65449 19.6502 7.72463 19.7062C7.79303 19.7661 7.87896 19.7661 7.94736 19.7062L10.1553 17.9092C10.2947 17.7913 10.3798 17.5829 10.3798 17.3558V13.5342C10.3796 13.4223 10.4003 13.3123 10.4396 13.2154C10.4789 13.1184 10.5356 13.038 10.6038 12.9821L11.5438 12.2127C11.612 12.1564 11.6895 12.1268 11.7683 12.127C11.8451 12.127 11.9235 12.1551 11.9914 12.2126L12.931 12.9817C13.07 13.0952 13.1554 13.3058 13.1554 13.5338V17.3552C13.1554 17.582 13.2416 17.7914 13.3803 17.9085L15.5869 19.7044C15.6208 19.7331 15.6596 19.7483 15.6991 19.7483C15.7387 19.7483 15.7774 19.7331 15.8114 19.7044C15.8452 19.6762 15.8732 19.6359 15.8927 19.5876C15.9122 19.5393 15.9225 19.4846 15.9226 19.4289L15.9298 11.2498ZM33.4555 15.509C33.4555 15.566 33.4342 15.6187 33.3994 15.6468L32.1238 16.6919C32.1067 16.7059 32.0874 16.7132 32.0678 16.7132C32.0481 16.7132 32.0288 16.7059 32.0118 16.6919L30.7359 15.6468C30.7009 15.6186 30.6798 15.5658 30.6798 15.509V13.4158C30.6798 13.3587 30.7009 13.3061 30.7351 13.2775L32.01 12.2306C32.0451 12.202 32.0881 12.202 32.1231 12.2306L33.399 13.2775C33.4341 13.3061 33.4551 13.3587 33.4551 13.4158L33.4555 15.509ZM33.8002 0.00547532C33.766 -0.0215508 33.7274 -0.0354536 33.6883 -0.0348636C33.6492 -0.0342735 33.6109 -0.019211 33.5771 0.00884018C33.5087 0.0661674 33.4664 0.170852 33.4664 0.28426V8.38485C33.4665 8.42402 33.4592 8.46251 33.4455 8.49645C33.4317 8.53038 33.4119 8.55856 33.388 8.57815C33.3642 8.59774 33.3371 8.60804 33.3095 8.60802C33.282 8.60799 33.2549 8.59765 33.2311 8.57802L32.3007 7.81644C32.2326 7.76048 32.1553 7.73101 32.0766 7.73101C31.9979 7.73101 31.9206 7.76048 31.8525 7.81644L28.1372 10.8639C28.069 10.9196 28.0124 10.9998 27.973 11.0965C27.9336 11.1932 27.9128 11.303 27.9127 11.4147V17.5114C27.9127 17.7394 27.9984 17.9488 28.1372 18.0634L31.8525 21.113C31.9912 21.2264 32.162 21.2264 32.3012 21.113L36.0164 18.0622C36.155 17.9475 36.2409 17.7382 36.2409 17.5101V2.31589C36.2408 2.20228 36.2194 2.09078 36.1788 1.99286C36.1383 1.89495 36.0801 1.81416 36.0103 1.75882L33.8002 0.00547532ZM46.1722 13.3607C46.24 13.3046 46.2963 13.2242 46.3354 13.1275C46.3746 13.0308 46.3951 12.9212 46.3951 12.8096V11.3321C46.3951 11.1048 46.3101 10.895 46.1718 10.7806L42.4802 7.73481C42.4119 7.67849 42.3343 7.64883 42.2553 7.64883C42.1763 7.64883 42.0987 7.67849 42.0304 7.73481L38.3159 10.7819C38.1765 10.8965 38.0915 11.1059 38.0915 11.334V17.4281C38.0915 17.6574 38.1783 17.8693 38.3177 17.9827L42.0084 20.9724C42.1444 21.0833 42.311 21.0846 42.4486 20.9762L44.6811 19.2127C44.7513 19.1566 44.796 19.0507 44.796 18.9361C44.796 18.8214 44.753 18.7142 44.6829 18.6581L40.9457 15.6098C40.8755 15.5538 40.8326 15.4478 40.8326 15.3344V13.4227C40.8326 13.3085 40.8746 13.2033 40.9448 13.1465L42.1075 12.1931C42.1768 12.1358 42.2619 12.1358 42.3311 12.1931L43.4947 13.1465C43.564 13.2026 43.607 13.3085 43.607 13.4219V14.9249C43.607 15.0383 43.6499 15.1442 43.7192 15.2016C43.7885 15.2576 43.8744 15.2576 43.9437 15.2003L46.1722 13.3607Z" fill="#333333"/>
<path fill-rule="evenodd" clip-rule="evenodd" d="M42.2009 13.0701C42.214 13.0593 42.2288 13.0536 42.2439 13.0536C42.259 13.0536 42.2738 13.0593 42.2869 13.0701L42.9998 13.6546C43.0264 13.6765 43.0428 13.7169 43.0428 13.7605V14.9308C43.0428 14.9744 43.0264 15.0148 42.9998 15.0367L42.2869 15.6212C42.2738 15.632 42.259 15.6377 42.2439 15.6377C42.2288 15.6377 42.214 15.632 42.2009 15.6212L41.4884 15.0367C41.4752 15.0261 41.4642 15.0108 41.4564 14.9921C41.4487 14.9735 41.4447 14.9524 41.4446 14.9308V13.7605C41.4446 13.7169 41.4604 13.6765 41.4876 13.6546L42.2009 13.0701Z" fill="#689F63"/>
<path d="M29.7948 10.2757L19.3851 3.02377L14.0476 18.4989L24.4571 25.7512L29.7948 10.2757Z" fill="url(#paint0_linear)"/>
<path d="M13.3717 12.4205L20.7221 26.5595L30.443 16.3521L23.0922 2.21344L13.3717 12.4205Z" fill="url(#paint1_linear)"/>
<path d="M18.0148 7.67612V21.0645H26.0542V7.67612H18.0148Z" fill="url(#paint2_linear)"/>
</g>
<defs>
<linearGradient id="paint0_linear" x1="24.5868" y1="6.63833" x2="15.5849" y2="19.5592" gradientUnits="userSpaceOnUse">
<stop offset="0.3" stop-color="#3E863D"/>
<stop offset="0.5" stop-color="#55934F"/>
<stop offset="0.8" stop-color="#5AAD45"/>
</linearGradient>
<linearGradient id="paint1_linear" x1="17.0909" y1="19.5711" x2="28.9219" y2="13.4204" gradientUnits="userSpaceOnUse">
<stop offset="0.57" stop-color="#3E863D"/>
<stop offset="0.72" stop-color="#619857"/>
<stop offset="1" stop-color="#76AC64"/>
</linearGradient>
<linearGradient id="paint2_linear" x1="18.0175" y1="14.3707" x2="26.0557" y2="14.3707" gradientUnits="userSpaceOnUse">
<stop offset="0.16" stop-color="#6BBF47"/>
<stop offset="0.38" stop-color="#79B461"/>
<stop offset="0.47" stop-color="#75AC64"/>
<stop offset="0.7" stop-color="#659E5A"/>
<stop offset="0.9" stop-color="#3E863D"/>
</linearGradient>
<clipPath id="clip0">
<rect width="54" height="47" fill="white"/>
</clipPath>
</defs>
</svg>
