<svg width="32" height="34" viewBox="0 0 32 34" fill="none" xmlns="http://www.w3.org/2000/svg">
<g clip-path="url(#clip0)">
<path d="M31.7078 17.003C31.7078 15.0264 29.1151 13.1531 25.14 11.9914C26.0573 8.12327 25.6496 5.04577 23.8532 4.06048C23.4391 3.82936 22.955 3.71989 22.4263 3.71989V5.07618C22.7193 5.07618 22.955 5.13092 23.1525 5.23431C24.0188 5.70871 24.3947 7.51507 24.1017 9.8384C24.0316 10.4101 23.9169 11.0122 23.7768 11.6265C22.5282 11.3346 21.1649 11.1095 19.7316 10.9636C18.8716 9.8384 17.9798 8.81662 17.0816 7.92256C19.1583 6.07971 21.1076 5.0701 22.4326 5.0701V3.71381C20.6808 3.71381 18.3875 4.90588 16.0687 6.97377C13.7499 4.91805 11.4566 3.73813 9.70474 3.73813V5.09442C11.0234 5.09442 12.9791 6.09796 15.0558 7.92865C14.164 8.8227 13.2721 9.8384 12.4249 10.9636C10.9852 11.1095 9.62193 11.3346 8.37335 11.6326C8.22683 11.0244 8.11854 10.4344 8.04209 9.86881C7.74269 7.54548 8.11217 5.73912 8.97216 5.25864C9.16327 5.14916 9.41171 5.10051 9.70474 5.10051V3.74422C9.16964 3.74422 8.68549 3.85369 8.26505 4.08481C6.47499 5.0701 6.07367 8.14152 6.99736 11.9975C3.03502 13.1653 0.455048 15.0324 0.455048 17.003C0.455048 18.9797 3.04777 20.8529 7.02284 22.0146C6.10552 25.8828 6.51322 28.9603 8.30965 29.9456C8.72372 30.1767 9.20786 30.2862 9.74297 30.2862C11.4948 30.2862 13.7881 29.0941 16.1069 27.0262C18.4257 29.0819 20.719 30.2618 22.4709 30.2618C23.006 30.2618 23.4901 30.1523 23.9105 29.9212C25.7006 28.9359 26.1019 25.8645 25.1782 22.0085C29.1278 20.8469 31.7078 18.9736 31.7078 17.003ZM23.4137 12.9463C23.178 13.7309 22.8849 14.5398 22.5537 15.3487C22.2925 14.8621 22.0186 14.3756 21.7192 13.889C21.4261 13.4025 21.114 12.9281 20.8018 12.4658C21.7064 12.5936 22.5791 12.7517 23.4137 12.9463ZM20.4961 19.4237C19.9992 20.2447 19.4895 21.0232 18.9608 21.747C18.0116 21.8261 17.0497 21.8686 16.0814 21.8686C15.1195 21.8686 14.1576 21.8261 13.2148 21.7531C12.6861 21.0293 12.1701 20.2569 11.6732 19.4419C11.189 18.6452 10.7495 17.8363 10.3481 17.0213C10.7431 16.2063 11.189 15.3913 11.6668 14.5945C12.1637 13.7735 12.6733 12.995 13.202 12.2712C14.1512 12.1921 15.1131 12.1496 16.0814 12.1496C17.0433 12.1496 18.0053 12.1921 18.9481 12.2651C19.4768 12.9889 19.9928 13.7613 20.4897 14.5763C20.9738 15.373 21.4134 16.1819 21.8147 16.9969C21.4134 17.8119 20.9738 18.6269 20.4961 19.4237ZM22.5537 18.633C22.8977 19.448 23.1907 20.263 23.4328 21.0536C22.5983 21.2483 21.7192 21.4125 20.8082 21.5402C21.1203 21.0719 21.4325 20.5914 21.7255 20.0988C22.0186 19.6122 22.2925 19.1196 22.5537 18.633ZM16.0942 25.1225C15.5017 24.5386 14.9093 23.8879 14.3232 23.1763C14.8966 23.2006 15.4826 23.2188 16.0751 23.2188C16.6739 23.2188 17.2663 23.2067 17.846 23.1763C17.2727 23.8879 16.6802 24.5386 16.0942 25.1225ZM11.3547 21.5402C10.4501 21.4125 9.57734 21.2544 8.74283 21.0597C8.97853 20.2751 9.27156 19.4662 9.60282 18.6573C9.864 19.1439 10.1379 19.6305 10.4373 20.117C10.7367 20.6036 11.0425 21.078 11.3547 21.5402ZM16.0623 8.88352C16.6548 9.4674 17.2472 10.1182 17.8333 10.8298C17.2599 10.8054 16.6739 10.7872 16.0814 10.7872C15.4826 10.7872 14.8902 10.7994 14.3105 10.8298C14.8838 10.1182 15.4763 9.4674 16.0623 8.88352ZM11.3483 12.4658C11.0361 12.9341 10.724 13.4146 10.431 13.9073C10.1379 14.3938 9.864 14.8804 9.60282 15.367C9.25882 14.552 8.96579 13.737 8.72372 12.9463C9.55823 12.7578 10.4373 12.5936 11.3483 12.4658ZM5.58315 20.0805C3.32806 19.1621 1.86926 17.9579 1.86926 17.003C1.86926 16.0481 3.32806 14.8378 5.58315 13.9255C6.131 13.7005 6.72981 13.4998 7.34773 13.3112C7.71084 14.5033 8.18861 15.744 8.78105 17.0152C8.19498 18.2802 7.72358 19.5149 7.36684 20.7009C6.73618 20.5123 6.13737 20.3056 5.58315 20.0805ZM9.01038 28.7717C8.14402 28.2973 7.76817 26.491 8.0612 24.1676C8.13128 23.5959 8.24594 22.9938 8.38609 22.3795C9.63467 22.6715 10.9979 22.8965 12.4312 23.0425C13.2912 24.1676 14.1831 25.1894 15.0813 26.0835C13.0046 27.9263 11.0553 28.9359 9.73023 28.9359C9.44356 28.9299 9.20149 28.8751 9.01038 28.7717ZM24.1208 24.1372C24.4202 26.4606 24.0507 28.2669 23.1907 28.7474C22.9996 28.8569 22.7511 28.9055 22.4581 28.9055C21.1395 28.9055 19.1838 27.902 17.1071 26.0713C17.9989 25.1773 18.8907 24.1616 19.738 23.0364C21.1777 22.8904 22.5409 22.6654 23.7895 22.3674C23.936 22.9816 24.0507 23.5716 24.1208 24.1372ZM26.5733 20.0805C26.0255 20.3056 25.4267 20.5063 24.8088 20.6948C24.4457 19.5027 23.9679 18.262 23.3754 16.9909C23.9615 15.7258 24.4329 14.4911 24.7896 13.3052C25.4203 13.4937 26.0191 13.7005 26.5797 13.9255C28.8348 14.8439 30.2936 16.0481 30.2936 17.003C30.2872 17.9579 28.8284 19.1682 26.5733 20.0805Z" fill="#61DAFB"/>
<path d="M16.0751 19.7825C17.6829 19.7825 18.9863 18.5381 18.9863 17.003C18.9863 15.468 17.6829 14.2235 16.0751 14.2235C14.4672 14.2235 13.1638 15.468 13.1638 17.003C13.1638 18.5381 14.4672 19.7825 16.0751 19.7825Z" fill="#61DAFB"/>
</g>
<defs>
<clipPath id="clip0">
<rect width="31.2528" height="34" fill="white" transform="translate(0.455048)"/>
</clipPath>
</defs>
</svg>
