<svg width="33" height="34" viewBox="0 0 33 34" fill="none" xmlns="http://www.w3.org/2000/svg">
<g clip-path="url(#clip0)">
<path d="M27.6552 19.5329C26.5625 19.5418 25.6164 19.9225 24.8229 20.4892C24.5299 19.6481 24.2369 18.9131 24.1881 18.3642C24.1332 17.7267 24.0661 17.337 24.1332 16.5757C24.2003 15.8141 24.5055 14.7339 24.5055 14.6454C24.4993 14.5657 24.4383 14.1761 23.8096 14.1673C23.181 14.1584 22.6376 14.3443 22.5766 14.5834C22.5156 14.8225 22.3935 15.3714 22.3141 15.9381C22.2043 16.7704 21.0567 19.7188 20.4036 21.2683C20.1899 20.6662 20.0068 20.135 19.9701 19.7099C19.9152 19.0725 19.848 18.6828 19.9152 17.9214C19.9824 17.1599 20.2876 16.0798 20.2876 15.9912C20.2815 15.9115 20.2204 15.5219 19.5918 15.5131C18.963 15.5042 18.4198 15.6902 18.3588 15.9292C18.2977 16.1683 18.2306 16.735 18.0963 17.2839C17.9681 17.8329 16.442 22.7558 16.0453 24.0396C15.8439 24.6948 15.6669 25.2172 15.5387 25.5714C15.4105 25.9256 15.5325 25.598 15.5203 25.6334C15.4105 25.9344 15.3494 26.1027 15.3494 26.1027V26.1116C15.264 26.333 15.1724 26.5454 15.1296 26.5454C15.0991 26.5454 15.0381 25.9521 15.1418 25.1376C15.3677 23.4287 15.917 20.7637 15.911 20.6663C15.911 20.622 16.0147 20.1527 15.5569 19.9137C15.1113 19.6746 14.9527 20.0731 14.916 20.0731C14.8794 20.0731 14.8488 20.2147 14.8488 20.2147C14.8488 20.2147 15.3433 17.2133 13.9027 17.2133C12.9993 17.2133 11.7541 18.6388 11.1376 19.9403C10.7469 20.2502 9.91677 20.9054 9.03779 21.6049C8.70207 21.8705 8.35414 22.1539 8.02452 22.4107L7.95744 22.3042C6.21169 19.6037 2.98265 17.6912 3.11694 14.061C3.16577 12.7417 3.48318 9.26205 9.3187 5.04748C14.0982 1.59436 17.9254 2.54175 18.5907 4.64904C19.5368 7.65945 16.5458 13.2553 11.5772 14.061C9.68494 14.3709 8.68993 13.3084 8.43972 12.91C8.17725 12.4938 8.14062 12.4761 8.04296 12.5558C7.88425 12.6798 7.98192 13.0516 8.04296 13.273C8.18946 13.8308 8.79986 14.8225 9.83755 15.3183C10.747 15.7521 12.9689 15.9912 15.6547 14.486C18.664 12.7949 21.014 8.10216 20.3243 4.17977C19.6223 0.186545 15.0565 -1.12387 10.7409 1.09852C8.17108 2.42665 5.38764 4.49852 3.38552 7.21674C1.00494 10.4397 0.626495 13.2553 0.7852 14.424C1.34073 18.5943 5.30219 21.3126 6.88923 23.3225C6.80988 23.3843 6.73663 23.4463 6.66949 23.4995C5.87597 24.0661 2.85447 26.3594 2.09757 28.7854C1.243 31.5302 2.23186 33.5047 2.89109 33.7704C4.92984 34.5938 7.01742 33.1151 8.14667 30.6803C9.26975 28.2454 9.13552 25.0844 8.61668 23.6412L8.5983 23.5881L9.22091 23.0568C9.62384 22.7115 10.0206 22.3928 10.3685 22.1182C10.1732 22.8885 10.0328 23.8005 9.95956 25.1286C9.87411 26.687 10.3136 28.7057 10.8935 29.5026C11.1499 29.8478 11.4551 29.8567 11.6443 29.8567C12.3157 29.8567 12.6209 29.0509 12.9566 28.0859C13.3717 26.9083 13.738 25.5448 13.738 25.5448C13.738 25.5448 13.2802 29.2369 14.5315 29.2369C14.9893 29.2369 15.4471 28.3781 15.6546 27.9354V27.9442C15.6546 27.9442 15.6668 27.9177 15.6913 27.8557C15.7169 27.8008 15.7413 27.7447 15.7645 27.6876V27.6698C15.9476 27.2094 16.3566 26.1558 16.967 24.4115C17.7544 22.1626 18.5113 19.3469 18.5113 19.3469C18.5113 19.3469 18.5846 20.0376 18.8104 21.1709C18.9446 21.8439 19.2376 22.5787 19.4635 23.2959C19.2804 23.6678 19.1705 23.8804 19.1705 23.8804L19.1766 23.8892C19.0302 24.1725 18.8653 24.4737 18.6944 24.7746C18.0718 25.8548 17.3271 27.0856 17.2295 27.4398C17.1135 27.8559 17.1379 28.1658 17.3638 28.4138C17.5286 28.5909 17.8216 28.6262 18.1329 28.5909C18.6944 28.5376 19.0851 28.3341 19.2804 28.21C19.5856 28.0507 19.9336 27.8116 20.2693 27.4574C20.8797 26.8023 21.252 25.8726 21.2154 24.633C21.1971 23.9513 21.0445 23.2784 20.8553 22.6409C20.9102 22.5258 20.9652 22.4106 21.0201 22.2867C21.9845 20.2413 22.7292 17.9924 22.7292 17.9924C22.7292 17.9924 22.8025 18.6831 23.0283 19.8164C23.1442 20.3919 23.3762 21.0206 23.5838 21.6404C22.6804 22.7118 22.1127 23.9514 21.9174 24.7659C21.5572 26.2712 21.838 26.9529 22.3691 27.1123C22.6071 27.1831 22.949 27.0238 23.2053 26.8644C23.5227 26.7139 23.9072 26.457 24.2613 26.0764C24.8717 25.4212 25.4577 24.5092 25.4272 23.2784C25.4089 22.7118 25.3051 22.154 25.1647 21.6227C25.9338 21.1623 26.9287 20.8967 28.1923 21.118C30.9086 21.5784 31.4458 24.0399 31.3421 25.067C31.2383 26.0942 30.6706 26.6607 30.4813 26.8378C30.2921 27.006 30.2311 27.0681 30.2494 27.192C30.2738 27.378 30.3593 27.3691 30.5241 27.3337C30.7499 27.2805 31.9524 26.4926 32.0012 24.5979C32.0745 22.1626 30.4813 19.5064 27.6552 19.5329ZM6.70611 29.7771C5.80882 31.2026 4.54529 31.7428 4.00813 31.2823C3.42825 30.7954 3.65403 28.6969 4.75893 27.1829C5.43037 26.262 6.30325 25.412 6.87703 24.8896C7.00521 24.7745 7.20054 24.6064 7.43249 24.4027C7.46912 24.3673 7.49353 24.3495 7.49353 24.3495C7.53626 24.3141 7.58509 24.2698 7.63393 24.2256C8.0429 26.386 7.65224 28.2808 6.70611 29.7771ZM13.268 23.3047C12.9566 24.4115 12.2974 27.2537 11.9006 27.0943C11.5588 26.9615 11.3513 24.8099 11.8334 22.685C12.0776 21.6135 12.5964 20.3386 12.9016 19.8427C13.3961 19.0458 13.9332 18.7802 14.0676 19.1078C14.2263 19.5329 13.4633 22.6141 13.268 23.3047ZM18.6822 27.0589C18.5479 27.1564 18.4259 27.2271 18.3709 27.1741C18.3282 27.1387 18.4258 27.0059 18.4258 27.0059C18.4258 27.0059 19.1033 25.9522 19.3719 25.4652C19.5245 25.182 19.7076 24.8544 19.903 24.4824V24.5887C19.903 25.8636 19.0607 26.7136 18.6822 27.0589ZM22.8573 25.6777C22.7597 25.5714 22.7719 25.2438 23.1015 24.2167C23.2297 23.8094 23.5227 23.1277 24.0293 22.4813C24.0903 22.7469 24.127 23.0036 24.1209 23.2428C24.1148 24.8365 23.3335 25.4297 22.8573 25.6777Z" fill="#CF649A"/>
</g>
<defs>
<clipPath id="clip0">
<rect width="31.2528" height="34" fill="white" transform="translate(0.760498)"/>
</clipPath>
</defs>
</svg>
