<svg width="30" height="31" viewBox="0 0 30 31" fill="none" xmlns="http://www.w3.org/2000/svg">
<g clip-path="url(#clip0)">
<path d="M7.88205 31C11.8571 31 15.0833 28.7418 15.0833 25.9593V20.9187H7.88205C3.90696 20.9187 0.680801 23.1769 0.680801 25.9593C0.680801 28.7418 3.90696 31 7.88205 31Z" fill="#2BCF83"/>
<path d="M0.680801 15.8781C0.680801 13.0956 3.90696 10.8374 7.88205 10.8374H15.0833V20.9187H7.88205C3.90696 20.9187 0.680801 18.6605 0.680801 15.8781Z" fill="#A259FF"/>
<path d="M0.680923 5.79682C0.680923 3.01438 3.90708 0.756165 7.88218 0.756165H15.0834V10.8375H7.88218C3.90708 10.8375 0.680923 8.57926 0.680923 5.79682Z" fill="#F24E1E"/>
<path d="M15.0823 0.756165H22.2836C26.2587 0.756165 29.4849 3.01438 29.4849 5.79682C29.4849 8.57926 26.2587 10.8375 22.2836 10.8375H15.0823V0.756165Z" fill="#FC7262"/>
<path d="M29.4849 15.8781C29.4849 18.6605 26.2587 20.9187 22.2836 20.9187C18.3085 20.9187 15.0823 18.6605 15.0823 15.8781C15.0823 13.0956 18.3085 10.8374 22.2836 10.8374C26.2587 10.8374 29.4849 13.0956 29.4849 15.8781Z" fill="#25BCFE"/>
</g>
<defs>
<clipPath id="clip0">
<rect width="28.8108" height="30.2439" fill="white" transform="translate(0.67691 0.756104)"/>
</clipPath>
</defs>
</svg>
